<svg width="160" height="160" viewBox="0 0 160 160" fill="none" xmlns="http://www.w3.org/2000/svg">
<path d="M78.6368 28.6991C80.4622 28.6605 82.3164 29.159 83.9319 30.2446L148.733 73.7917C152.803 76.527 153.816 81.9444 150.996 85.8917C148.175 89.839 142.589 90.822 138.519 88.0868L78.6771 47.872L19.0412 88.3688C14.9846 91.1234 9.39313 90.167 6.5527 86.2331C3.71265 82.2992 4.69868 76.8774 8.75495 74.1228L73.3366 30.2692C74.9505 29.1734 76.807 28.6664 78.6368 28.6991Z" fill="#00A3E0"/>
<path d="M49.7648 140.87H77.5613C106.211 140.87 130.376 122.254 137.9 96.8156C144.917 98.5448 152.614 96.0248 157.012 89.9329C158.584 87.7567 159.568 85.3523 160 82.8966C158.428 125.738 122.121 160 77.5613 160H0V89.5805C0.281358 90.0619 0.588123 90.5353 0.922056 90.9978C5.2567 97.0009 12.7936 99.5361 19.7266 97.9535V140.87H30.0382V92.4567L49.7648 79.0608V140.87Z" fill="#00A3E0"/>
<path d="M77.5613 0C122.095 0 158.386 34.2226 159.997 77.0287C159.219 72.6113 156.692 68.4852 152.608 65.7116L133.799 52.939C123.527 32.9008 102.202 19.1304 77.5613 19.1304H19.7266V56.9973L5.32569 66.7765C3.06094 68.3144 1.27473 70.2682 0 72.4567V0H77.5613Z" fill="#00A3E0"/>
<path d="M125.981 90.0925V109.5C120.811 116.707 114.078 122.779 106.254 127.253V76.6975L125.981 90.0925Z" fill="#440099"/>
<rect x="60.5249" y="89.5649" width="16.1399" height="15.6522" rx="3" fill="#440099"/>
<rect x="60.5249" y="108.696" width="16.1399" height="15.6522" rx="3" fill="#440099"/>
<rect x="79.355" y="89.5649" width="16.1399" height="15.6522" rx="3" fill="#FFC107"/>
<rect x="79.355" y="108.696" width="16.1399" height="15.6522" rx="3" fill="#440099"/>
</svg>
