<svg width="502" height="122" viewBox="0 0 502 122" fill="none" xmlns="http://www.w3.org/2000/svg">
<path d="M184.527 65.8721C188.026 65.7601 192.057 64.9062 196.62 63.3105C201.407 61.6589 203.843 58.2715 203.927 53.1484L204.011 45.8838L203.633 38.6191C202.709 28.9049 196.942 21.8083 186.332 17.3291L185.114 17.1191L183.855 17.0352L184.191 41.2646L184.527 65.8721ZM179.236 77C176.38 76.3281 174.91 73.8926 174.826 69.6934L174.574 52.5605L174.616 46.8496L174.574 41.1387L173.651 14.7256V10.6104C173.735 7.25098 175.204 5.34733 178.06 4.89941L183.057 6.36914L187.802 7.71289C196.788 10.1764 203.927 15.5374 209.218 23.7959C211.29 26.9873 212.563 30.5286 213.039 34.4199C213.599 38.8151 213.991 43.9801 214.215 49.915L213.963 53.2324L213.459 56.5498C212.479 64.4163 207.972 69.7913 199.938 72.6748C197.054 73.6826 193.737 74.5785 189.986 75.3623L184.821 76.2441L182.091 76.5801L179.236 77ZM256.997 66.6699C260.328 66.6699 263.407 65.1862 266.235 62.2188C269.286 59.0553 271.862 54.9121 273.962 49.7891C275.641 45.7578 276.481 41.8805 276.481 38.1572C276.481 31.2425 273.584 24.9017 267.789 19.1348C265.325 16.6712 262.484 15.4395 259.264 15.4395C258.62 15.4395 257.963 15.4954 257.291 15.6074C251.16 16.5312 246.065 19.6387 242.005 24.9297C238.534 29.4648 236.798 34.3639 236.798 39.627C236.798 40.4948 236.84 41.3766 236.924 42.2725C237.568 48.0394 239.304 53.5264 242.131 58.7334C245.015 64.0244 249.662 66.6699 256.073 66.6699H256.997ZM286.559 40.0889C285.131 53.3864 279.798 63.9264 270.56 71.709C266.389 75.2363 261.56 77 256.073 77C254.981 77 253.861 76.93 252.713 76.79C245.743 75.9782 240.284 72.8568 236.337 67.4258C230.01 58.7474 226.846 50.041 226.846 41.3066C226.846 36.3236 227.868 31.3405 229.912 26.3574C234.363 15.5234 242.817 8.59473 255.275 5.57129C256.815 5.20736 258.326 5.02539 259.81 5.02539C264.597 5.02539 269.076 6.94303 273.248 10.7783C281.282 18.2249 285.719 27.9951 286.559 40.0889ZM326.863 43.6162C332.798 30.4867 336.773 20.4225 338.789 13.4238L339.167 11.8701L339.629 10.4004C340.693 7.85286 342.274 6.5791 344.374 6.5791C344.654 6.5791 344.948 6.6071 345.256 6.66309C347.719 7.05501 349.147 8.62272 349.539 11.3662C350.043 15.0335 350.295 17.889 350.295 19.9326V20.2686C350.267 21.1084 350.253 21.9622 350.253 22.8301C350.253 35.1478 351.947 49.7891 355.334 66.7539C355.642 68.3216 355.796 69.8753 355.796 71.415C355.796 71.779 355.782 72.1429 355.754 72.5068C355.67 74.9704 354.41 76.4261 351.975 76.874C351.611 76.958 351.247 77 350.883 77C349.259 77 348.013 76.1602 347.146 74.4805C346.418 73.0807 345.858 71.2471 345.466 68.9795L342.946 54.1562L340.427 38.9551L339.419 40.7188L338.537 42.3984L333.834 52.9805L333.162 54.4082L332.406 55.7939C330.727 58.2575 329.061 59.4893 327.409 59.4893C325.785 59.4893 324.176 58.3135 322.58 55.9619L317.415 48.0254L312.418 39.9629L311.116 37.9893C310.556 37.2334 309.912 36.5895 309.185 36.0576L309.143 63.6465C309.115 65.998 308.779 68.4196 308.135 70.9111C307.575 73.2627 306.203 74.4385 304.02 74.4385C303.852 74.4385 303.684 74.4245 303.516 74.3965C301.304 74.2285 300.002 72.8148 299.61 70.1553L299.484 67.0059L299.19 13.8438C299.19 12.248 299.302 10.6803 299.526 9.14062C299.89 6.81706 301.276 5.43132 303.684 4.9834C304.02 4.92741 304.355 4.89941 304.691 4.89941C306.455 4.89941 307.883 5.82324 308.975 7.6709L309.856 9.56055L310.528 11.5762C314.756 23.362 319.389 32.9782 324.428 40.4248L325.52 41.8945L326.863 43.6162ZM374.39 4.89941C374.586 4.87142 374.796 4.85742 375.02 4.85742C376.112 4.85742 377.022 5.19336 377.749 5.86523C378.897 6.95703 379.471 8.7207 379.471 11.1562V11.8281L378.925 23.9219L378.631 36.0156V36.2676C378.631 42.8743 379.695 49.6071 381.823 56.4658C382.271 57.8936 382.928 59.4473 383.796 61.127C385.252 63.9824 387.282 65.5221 389.885 65.7461C390.053 65.7741 390.221 65.7881 390.389 65.7881C392.097 65.7881 393.357 64.9902 394.168 63.3945L395.302 61.2109L396.268 58.9014C398.592 52.7145 399.753 46.7516 399.753 41.0127C399.753 40.5648 399.739 40.1169 399.711 39.6689L399.291 30.4307L398.829 21.1504L398.746 15.4395L398.788 9.8125C398.816 8.49674 399.347 7.43294 400.383 6.62109L400.467 6.53711C401.195 5.97721 401.979 5.69727 402.819 5.69727C403.239 5.69727 403.673 5.76725 404.121 5.90723C405.436 6.32715 406.346 7.19499 406.85 8.51074C407.914 11.3382 408.726 14.5576 409.286 18.1689C410.265 24.6637 410.755 30.7946 410.755 36.5615C410.755 45.1559 409.663 52.9245 407.48 59.8672C406.444 63.1986 404.624 67.0758 402.021 71.499C399.837 75.1663 396.534 77 392.111 77C391.579 77 391.019 76.972 390.431 76.916C381.669 76.0762 375.846 71.737 372.962 63.8984C369.715 54.9961 368.091 47.0876 368.091 40.1729C368.091 39.6689 368.105 39.165 368.133 38.6611L369.351 12.8359C369.407 11.7721 369.729 10.2464 370.317 8.25879C370.877 6.24316 372.206 5.12337 374.306 4.89941H374.39ZM455.427 66.082C456.658 65.6901 457.274 64.8783 457.274 63.6465C457.274 63.4225 457.26 63.1986 457.232 62.9746C456.616 59.1393 454.559 55.57 451.059 52.2666C449.604 50.8949 447.7 49.2992 445.348 47.4795L439.512 42.9443L429.265 34.5879C428.034 33.4961 426.956 32.2643 426.032 30.8926C424.212 28.1771 423.303 25.6156 423.303 23.208C423.303 20.1566 424.786 17.3711 427.754 14.8516C433.241 10.1484 439.484 7.29297 446.482 6.28516L447.952 6.0752L449.758 5.82324L454.083 5.23535C455.986 5.03939 457.596 4.94141 458.912 4.94141C460.144 4.94141 461.11 5.02539 461.809 5.19336C464.245 5.80924 466.149 6.80306 467.52 8.1748C468.304 8.95866 468.696 9.89648 468.696 10.9883C468.696 11.2402 468.682 11.5062 468.654 11.7861C468.262 14.1937 466.862 15.4115 464.455 15.4395L460.55 15.3975C459.85 15.3415 459.15 15.3135 458.45 15.3135C455.091 15.3135 451.479 15.8034 447.616 16.7832C442.577 18.071 438.56 19.8346 435.564 22.0742C434.948 22.5501 434.64 23.124 434.64 23.7959C434.64 24.1318 434.71 24.4818 434.85 24.8457C435.522 26.3854 436.838 27.8831 438.798 29.3389L445.055 33.832L451.227 38.4512C458.394 44.0781 463.153 49.5511 465.505 54.8701C467.044 58.3415 467.814 61.4629 467.814 64.2344V64.5283C467.646 71.779 463.895 75.8382 456.56 76.7061C454.825 76.902 453.145 77 451.521 77C442.003 77 433.941 73.6126 427.334 66.8379L425.864 64.9062L424.646 62.7227C423.974 61.4629 423.638 60.2731 423.638 59.1533C423.638 58.6494 423.708 58.1455 423.848 57.6416C424.436 55.626 425.444 54.6182 426.872 54.6182C427.6 54.6182 428.44 54.8701 429.391 55.374L430.945 56.2979C432.457 57.2777 433.675 58.2575 434.598 59.2373C438.266 63.1006 443.361 65.5081 449.884 66.46C450.611 66.5439 451.297 66.5859 451.941 66.5859C453.201 66.5859 454.363 66.418 455.427 66.082Z" fill="#00A3E0"/>
<path d="M180.383 122C179.689 122 179.235 121.575 179.021 120.726C178.933 120.384 178.889 120.032 178.889 119.671C178.889 119.251 178.947 118.821 179.064 118.382C179.865 115.413 181.345 112.713 183.503 110.281L184.221 109.651L184.997 109.065C184.655 108.206 184.191 107.347 183.605 106.487L182.8 105.359L181.979 104.305L180.397 102.444L178.786 100.643L178.273 100.057L177.819 99.4268C177.634 99.1143 177.541 98.8164 177.541 98.5332C177.541 98.1523 177.697 97.7959 178.01 97.4639C178.361 97.083 178.747 96.8926 179.167 96.8926C179.421 96.8926 179.685 96.9609 179.958 97.0977C180.622 97.4395 181.184 97.874 181.643 98.4014L184.074 101.287L186.491 104.188C186.511 104.207 186.789 104.563 187.326 105.257L187.341 99.4854L187.429 98.5186C187.624 97.4736 188.186 96.9463 189.113 96.9365H189.157C190.124 96.9365 190.69 97.5127 190.856 98.665L190.959 99.8223L190.974 100.979L190.988 105.008C191.965 104.217 193.049 103.133 194.24 101.756L195.617 100.115L197.009 98.5039C197.429 98.0352 197.922 97.6201 198.488 97.2588C198.801 97.0635 199.099 96.9658 199.382 96.9658C199.753 96.9658 200.109 97.127 200.451 97.4492C200.803 97.7812 200.979 98.1475 200.979 98.5479C200.979 98.8213 200.896 99.1045 200.729 99.3975C200.495 99.8271 200.197 100.252 199.836 100.672L193.273 108.069L193.098 108.304L192.893 108.626L194.753 109.681C197.976 111.38 200.686 114.178 202.883 118.074C203.137 118.523 203.303 119.139 203.381 119.92C203.391 119.998 203.396 120.071 203.396 120.14C203.396 120.774 203.073 121.209 202.429 121.443C202.175 121.541 201.936 121.59 201.711 121.59C201.301 121.59 200.944 121.424 200.642 121.092L200.114 120.403L199.616 119.686L197.785 117.298C197.062 116.37 196.423 115.604 195.866 114.998C194.792 113.836 193.22 112.864 191.149 112.083C191.022 112.972 190.959 113.978 190.959 115.101L191.032 117.986L191.047 118.865L190.959 119.715C190.773 120.506 190.266 120.94 189.436 121.019C189.348 121.028 189.265 121.033 189.187 121.033C188.474 121.033 187.985 120.687 187.722 119.993C187.497 119.378 187.375 118.689 187.355 117.928L187.326 114.954V113.357L187.341 111.644L186.74 112.259L186.213 112.771C185.852 113.152 185.593 113.475 185.437 113.738C184.548 115.291 183.527 117.239 182.375 119.583L182.023 120.271L181.628 120.931C181.296 121.409 180.881 121.766 180.383 122ZM225.008 107.85L224.056 109.49L222.137 113.094L220.218 116.683C219.749 117.532 219.1 118.553 218.27 119.744C217.781 120.438 217.215 120.784 216.57 120.784C216.424 120.784 216.268 120.765 216.102 120.726C215.203 120.511 214.725 119.822 214.666 118.66L214.007 104.158C213.978 103.367 213.963 102.532 213.963 101.653C213.963 100.94 213.973 100.198 213.992 99.4268C214.012 98.6553 214.134 98.0791 214.358 97.6982C214.476 97.4932 214.661 97.3076 214.915 97.1416C215.169 96.9756 215.403 96.8926 215.618 96.8926C215.833 96.8926 216.072 96.9805 216.336 97.1562C216.59 97.3223 216.766 97.5078 216.863 97.7129C217.098 98.2109 217.234 98.9141 217.273 99.8223L217.684 111.614L217.713 112.347L217.771 113.182C218.094 113.035 218.353 112.796 218.548 112.464L218.768 112.039L218.987 111.614L226.385 99.1338C226.756 98.5088 227.132 98.0449 227.513 97.7422C227.884 97.459 228.26 97.3174 228.641 97.3174C228.865 97.3174 229.09 97.3662 229.314 97.4639C229.939 97.7275 230.291 98.2207 230.369 98.9434L230.354 100.203L230.223 101.463L229.622 107.791C229.544 108.709 229.505 109.671 229.505 110.677C229.505 113.04 229.729 115.633 230.179 118.455C230.296 119.207 230.354 119.866 230.354 120.433C230.345 121.185 229.964 121.673 229.212 121.897C229.007 121.966 228.816 122 228.641 122C228.084 122 227.669 121.688 227.396 121.062C227.083 120.34 226.858 119.529 226.722 118.631C226.165 115.057 225.887 111.829 225.887 108.948C225.887 108.001 225.916 107.093 225.975 106.224L225.008 107.85ZM246.298 100.921L244.174 101.082C244.027 101.092 243.881 101.097 243.734 101.097C243.109 101.097 242.514 101.028 241.947 100.892C241.176 100.706 240.785 100.198 240.775 99.3682C240.775 98.7041 241.112 98.2207 241.786 97.918C242.157 97.7422 242.577 97.6348 243.046 97.5957L248.026 97.1855L252.992 96.834L255.336 96.8779L257.68 97.0684C258.08 97.0977 258.446 97.1807 258.778 97.3174C259.638 97.708 260.067 98.2598 260.067 98.9727C260.067 99.0605 260.062 99.1484 260.053 99.2363C259.936 100.027 259.325 100.467 258.222 100.555H257.387L256.537 100.525L254.34 100.511L252.143 100.496V100.833L252.187 101.097L252.392 112.376L252.553 119.905L252.538 120.096C252.431 121.326 251.874 121.961 250.868 122H250.766C249.75 122 249.179 121.414 249.052 120.242L248.876 117.049L248.583 101.434V101.126L248.524 100.687L246.298 100.921ZM274.663 113.987L274.81 117.942C275.581 118.235 276.431 118.382 277.358 118.382C277.817 118.382 278.296 118.348 278.794 118.279C280.288 118.074 281.455 117.63 282.295 116.946C282.881 116.478 283.174 115.862 283.174 115.101C283.174 115.022 283.169 114.939 283.159 114.852C282.925 111.883 281.396 110.218 278.574 109.856C278.145 109.808 277.612 109.783 276.978 109.783H276.655L275.615 109.812L274.502 109.827L274.663 113.987ZM276.479 106.194L278.604 106.326C281.221 106.541 283.267 107.61 284.741 109.534C285.952 111.116 286.621 112.991 286.748 115.159C286.758 115.286 286.763 115.408 286.763 115.525C286.763 117.137 286.099 118.46 284.771 119.495C282.622 121.165 280.215 122 277.549 122C276.152 122 274.683 121.771 273.14 121.312C271.978 120.97 271.362 120.047 271.294 118.543L271.016 113.152L270.723 107.747C270.625 105.521 270.518 102.605 270.4 99.002L270.474 98.46C270.669 97.4346 271.167 96.9023 271.968 96.8633H272.07C272.783 96.8633 273.276 97.2881 273.55 98.1377C273.755 98.792 273.877 99.4463 273.916 100.101C273.945 100.647 273.97 101.219 273.989 101.814L274.004 102.605L274.033 103.543L274.106 104.744L274.194 106.062L276.479 106.194ZM317.551 108.377L318.269 108.084L318.898 107.82C319.357 107.625 319.738 107.498 320.041 107.439C321.77 107.088 322.878 105.779 323.366 103.514C323.435 103.211 323.469 102.933 323.469 102.679C323.469 101.468 322.717 100.789 321.213 100.643C320.715 100.594 320.236 100.569 319.777 100.569C318.986 100.569 318.244 100.638 317.551 100.774V108.377ZM317.639 117.166C318.82 117.85 319.987 118.191 321.14 118.191C321.784 118.191 322.429 118.084 323.073 117.869C324.87 117.273 326.105 116.023 326.779 114.119C325.842 112.742 324.533 111.678 322.854 110.926C322.062 111.229 321.174 111.561 320.188 111.922L317.639 112.889V117.166ZM326.53 108.685L327.424 109.417L328.435 110.354L329.372 111.351C330.212 112.386 330.632 113.416 330.632 114.441C330.632 115.447 330.222 116.448 329.401 117.444C326.901 120.481 324.133 122 321.096 122C320.1 122 319.069 121.834 318.005 121.502L317.609 121.443H317.419L317.229 121.473C316.711 121.658 316.252 121.751 315.852 121.751C314.719 121.751 314.104 121.004 314.006 119.51C313.859 117.576 313.781 115.481 313.771 113.226L313.801 100.452C313.811 99.6416 313.864 98.9922 313.962 98.5039C314.177 97.4492 314.841 96.9219 315.954 96.9219H316.042L321.096 96.9365L322.209 97.0244C323.029 97.1416 323.737 97.3857 324.333 97.7568C326.237 98.9287 327.189 100.53 327.189 102.562C327.189 103.147 327.111 103.768 326.955 104.422C326.828 104.9 326.633 105.491 326.369 106.194L325.651 108.011L326.53 108.685ZM350.589 110.354C352.659 105.774 354.046 102.264 354.749 99.8223L354.881 99.2803L355.042 98.7676C355.413 97.8789 355.965 97.4346 356.697 97.4346C356.795 97.4346 356.897 97.4443 357.005 97.4639C357.864 97.6006 358.362 98.1475 358.499 99.1045C358.675 100.384 358.763 101.38 358.763 102.093V102.21C358.753 102.503 358.748 102.801 358.748 103.104C358.748 107.4 359.339 112.508 360.521 118.426C360.628 118.973 360.682 119.515 360.682 120.052C360.682 120.179 360.677 120.306 360.667 120.433C360.638 121.292 360.198 121.8 359.349 121.956C359.222 121.985 359.095 122 358.968 122C358.401 122 357.967 121.707 357.664 121.121C357.41 120.633 357.215 119.993 357.078 119.202L356.199 114.031L355.32 108.729L354.969 109.344L354.661 109.93L353.021 113.621L352.786 114.119L352.522 114.603C351.937 115.462 351.355 115.892 350.779 115.892C350.213 115.892 349.651 115.481 349.095 114.661L347.293 111.893L345.55 109.08L345.096 108.392C344.9 108.128 344.676 107.903 344.422 107.718L344.407 117.342C344.397 118.162 344.28 119.007 344.056 119.876C343.86 120.696 343.382 121.106 342.62 121.106C342.562 121.106 342.503 121.102 342.444 121.092C341.673 121.033 341.219 120.54 341.082 119.612L341.038 118.514L340.936 99.9688C340.936 99.4121 340.975 98.8652 341.053 98.3281C341.18 97.5176 341.663 97.0342 342.503 96.8779C342.62 96.8584 342.737 96.8486 342.854 96.8486C343.47 96.8486 343.968 97.1709 344.349 97.8154L344.656 98.4746L344.891 99.1777C346.365 103.289 347.981 106.644 349.739 109.241L350.12 109.754L350.589 110.354ZM374.97 109.227L376.83 109.212L378.544 109.241C379.687 109.329 380.414 109.769 380.727 110.56C380.824 110.804 380.873 111.028 380.873 111.233C380.873 111.702 380.614 112.068 380.097 112.332C379.677 112.557 379.066 112.703 378.266 112.771L376.728 112.933L375.028 113.123C375.126 114.744 375.209 116.248 375.277 117.635H377.284L379.496 117.591L381.708 117.62C382.782 117.688 383.583 118.05 384.11 118.704C384.306 118.938 384.403 119.197 384.403 119.48C384.403 119.607 384.379 119.744 384.33 119.891C384.193 120.33 383.905 120.613 383.466 120.74C382.626 120.994 381.742 121.136 380.814 121.165L378.983 121.209L377.167 121.341C376.659 121.409 375.644 121.604 374.12 121.927C373.896 121.976 373.686 122 373.49 122C372.592 122 372.055 121.473 371.879 120.418L371.776 119.51C371.61 117.596 371.474 115.359 371.366 112.801L371.308 110.018L371.278 107.22L371 98.5771V98.4307C371 97.1123 371.625 96.3311 372.875 96.0869C373.549 96.4775 374.413 96.7021 375.468 96.7607L376.874 96.7754L378.31 96.7461H380.038L381.767 96.8633C383.036 97.0391 383.676 97.6494 383.686 98.6943C383.686 99.4951 383.3 99.9883 382.528 100.174C381.894 100.32 381.005 100.394 379.862 100.394C379.521 100.394 379.154 100.389 378.764 100.379L376.845 100.35C376.142 100.369 375.517 100.442 374.97 100.569V109.227ZM412.285 115.159C412.451 115.052 412.607 114.998 412.754 114.998C413.047 114.998 413.267 115.257 413.413 115.774C413.491 116.028 413.53 116.277 413.53 116.521C413.53 117.254 413.213 117.991 412.578 118.733C410.713 120.911 408.54 122 406.06 122C405.073 122 404.038 121.829 402.954 121.487C400.532 120.726 398.535 119.192 396.963 116.888C395.518 114.769 394.795 112.547 394.795 110.223C394.795 110.027 394.8 109.827 394.81 109.622C395.015 105.892 396.294 102.718 398.647 100.101C399.624 99.0166 400.732 98.1768 401.973 97.5811C402.959 97.1123 403.916 96.8779 404.844 96.8779C406.299 96.8779 407.666 97.4688 408.945 98.6504C409.727 99.3633 410.361 100.022 410.85 100.628C411.338 101.243 411.582 101.795 411.582 102.283C411.582 102.703 411.396 103.074 411.025 103.396C410.752 103.631 410.449 103.748 410.117 103.748C409.619 103.748 409.058 103.47 408.433 102.913L407.495 102.034L406.558 101.155C406.001 100.667 405.41 100.423 404.785 100.423C404.316 100.423 403.828 100.564 403.32 100.848C402.5 101.316 401.914 101.746 401.562 102.137C399.424 104.5 398.354 107.098 398.354 109.93C398.354 110.35 398.379 110.779 398.428 111.219C398.672 113.455 399.775 115.364 401.738 116.946C403.076 118.03 404.399 118.572 405.708 118.572C406.831 118.572 407.944 118.172 409.048 117.371C410.2 116.531 411.001 115.96 411.45 115.657L411.875 115.408C412.148 115.252 412.285 115.169 412.285 115.159ZM429.562 100.921L427.438 101.082C427.291 101.092 427.145 101.097 426.998 101.097C426.373 101.097 425.777 101.028 425.211 100.892C424.439 100.706 424.049 100.198 424.039 99.3682C424.039 98.7041 424.376 98.2207 425.05 97.918C425.421 97.7422 425.841 97.6348 426.31 97.5957L431.29 97.1855L436.256 96.834L438.6 96.8779L440.943 97.0684C441.344 97.0977 441.71 97.1807 442.042 97.3174C442.901 97.708 443.331 98.2598 443.331 98.9727C443.331 99.0605 443.326 99.1484 443.316 99.2363C443.199 100.027 442.589 100.467 441.485 100.555H440.65L439.801 100.525L437.604 100.511L435.406 100.496V100.833L435.45 101.097L435.655 112.376L435.816 119.905L435.802 120.096C435.694 121.326 435.138 121.961 434.132 122H434.029C433.014 122 432.442 121.414 432.315 120.242L432.14 117.049L431.847 101.434V101.126L431.788 100.687L429.562 100.921ZM457.634 109.227L459.494 109.212L461.208 109.241C462.351 109.329 463.078 109.769 463.391 110.56C463.488 110.804 463.537 111.028 463.537 111.233C463.537 111.702 463.278 112.068 462.761 112.332C462.341 112.557 461.73 112.703 460.93 112.771L459.392 112.933L457.692 113.123C457.79 114.744 457.873 116.248 457.941 117.635H459.948L462.16 117.591L464.372 117.62C465.446 117.688 466.247 118.05 466.774 118.704C466.97 118.938 467.067 119.197 467.067 119.48C467.067 119.607 467.043 119.744 466.994 119.891C466.857 120.33 466.569 120.613 466.13 120.74C465.29 120.994 464.406 121.136 463.479 121.165L461.647 121.209L459.831 121.341C459.323 121.409 458.308 121.604 456.784 121.927C456.56 121.976 456.35 122 456.154 122C455.256 122 454.719 121.473 454.543 120.418L454.44 119.51C454.274 117.596 454.138 115.359 454.03 112.801L453.972 110.018L453.942 107.22L453.664 98.5771V98.4307C453.664 97.1123 454.289 96.3311 455.539 96.0869C456.213 96.4775 457.077 96.7021 458.132 96.7607L459.538 96.7754L460.974 96.7461H462.702L464.431 96.8633C465.7 97.0391 466.34 97.6494 466.35 98.6943C466.35 99.4951 465.964 99.9883 465.192 100.174C464.558 100.32 463.669 100.394 462.526 100.394C462.185 100.394 461.818 100.389 461.428 100.379L459.509 100.35C458.806 100.369 458.181 100.442 457.634 100.569V109.227Z" fill="#440099"/>
<path d="M59.9607 21.8827C61.3526 21.8533 62.7664 22.2334 63.9982 23.0611L113.409 56.2658C116.513 58.3515 117.285 62.4822 115.135 65.492C112.984 68.5018 108.724 69.2514 105.621 67.1658L59.9914 36.502L14.519 67.3808C11.4259 69.4812 7.16239 68.752 4.99657 65.7523C2.83103 62.7528 3.58288 58.6186 6.67579 56.5183L55.9193 23.0799C57.1499 22.2443 58.5655 21.8578 59.9607 21.8827Z" fill="#00A3E0"/>
<path d="M37.9456 107.413H59.1405C80.9859 107.413 99.4118 93.2187 105.149 73.8219C110.499 75.1404 116.368 73.2189 119.722 68.5738C120.92 66.9145 121.67 65.0812 122 63.2086C120.801 95.8749 93.1173 122 59.1405 122H0V68.3051C0.214536 68.6722 0.448443 69.0332 0.703068 69.3858C4.00823 73.9632 9.7551 75.8962 15.0415 74.6895V107.413H22.9041V70.4982L37.9456 60.2839V107.413Z" fill="#00A3E0"/>
<path d="M59.1405 0C93.0975 0 120.769 26.0948 121.998 58.7344C121.404 55.3661 119.478 52.22 116.363 50.1051L102.022 40.366C94.189 25.0869 77.9293 14.587 59.1405 14.587H15.0415V43.4604L4.06084 50.9171C2.33397 52.0897 0.97198 53.5795 0 55.2482V0H59.1405Z" fill="#00A3E0"/>
<path d="M96.0606 68.6958V83.4938C92.1186 88.9894 86.9842 93.6196 81.019 97.0305V58.4821L96.0606 68.6958Z" fill="#440099"/>
<rect x="46.1504" y="68.2935" width="12.3067" height="11.9348" rx="3" fill="#440099"/>
<rect x="46.1504" y="82.8802" width="12.3067" height="11.9348" rx="3" fill="#440099"/>
<rect x="60.5078" y="68.2933" width="12.3067" height="11.9348" rx="3" fill="#FFC107"/>
<rect x="60.5078" y="82.8802" width="12.3067" height="11.9348" rx="3" fill="#440099"/>
</svg>
