<svg width="358" height="312" viewBox="0 0 358 312" fill="none" xmlns="http://www.w3.org/2000/svg">
<path d="M40.5266 255.872C44.0259 255.76 48.0572 254.906 52.6203 253.311C57.4074 251.659 59.843 248.271 59.927 243.148L60.0109 235.884L59.633 228.619C58.7092 218.905 52.9423 211.808 42.3322 207.329L41.1145 207.119L39.8547 207.035L40.1906 231.265L40.5266 255.872ZM35.2355 267C32.3801 266.328 30.9104 263.893 30.8264 259.693L30.5744 242.561L30.6164 236.85L30.5744 231.139L29.6506 204.726V200.61C29.7346 197.251 31.2043 195.347 34.0598 194.899L39.0568 196.369L43.802 197.713C52.7883 200.176 59.927 205.537 65.218 213.796C67.2896 216.987 68.5633 220.529 69.0393 224.42C69.5992 228.815 69.9911 233.98 70.215 239.915L69.9631 243.232L69.4592 246.55C68.4794 254.416 63.9722 259.791 55.9377 262.675C53.0542 263.683 49.7369 264.578 45.9855 265.362L40.8205 266.244L38.091 266.58L35.2355 267ZM112.997 256.67C116.328 256.67 119.407 255.186 122.235 252.219C125.286 249.055 127.862 244.912 129.962 239.789C131.641 235.758 132.481 231.881 132.481 228.157C132.481 221.243 129.584 214.902 123.789 209.135C121.325 206.671 118.484 205.439 115.264 205.439C114.62 205.439 113.963 205.495 113.291 205.607C107.16 206.531 102.065 209.639 98.0055 214.93C94.5341 219.465 92.7984 224.364 92.7984 229.627C92.7984 230.495 92.8404 231.377 92.9244 232.272C93.5683 238.039 95.304 243.526 98.1314 248.733C101.015 254.024 105.662 256.67 112.073 256.67H112.997ZM142.559 230.089C141.131 243.386 135.798 253.926 126.56 261.709C122.389 265.236 117.56 267 112.073 267C110.981 267 109.861 266.93 108.713 266.79C101.743 265.978 96.2838 262.857 92.3365 257.426C86.0097 248.747 82.8463 240.041 82.8463 231.307C82.8463 226.324 83.8681 221.34 85.9117 216.357C90.3629 205.523 98.8173 198.595 111.275 195.571C112.815 195.207 114.326 195.025 115.81 195.025C120.597 195.025 125.076 196.943 129.248 200.778C137.282 208.225 141.719 217.995 142.559 230.089ZM182.863 233.616C188.798 220.487 192.773 210.423 194.789 203.424L195.167 201.87L195.629 200.4C196.693 197.853 198.274 196.579 200.374 196.579C200.654 196.579 200.948 196.607 201.256 196.663C203.719 197.055 205.147 198.623 205.539 201.366C206.043 205.034 206.295 207.889 206.295 209.933V210.269C206.267 211.108 206.253 211.962 206.253 212.83C206.253 225.148 207.947 239.789 211.334 256.754C211.642 258.322 211.796 259.875 211.796 261.415C211.796 261.779 211.782 262.143 211.754 262.507C211.67 264.97 210.41 266.426 207.975 266.874C207.611 266.958 207.247 267 206.883 267C205.259 267 204.013 266.16 203.146 264.48C202.418 263.081 201.858 261.247 201.466 258.979L198.946 244.156L196.427 228.955L195.419 230.719L194.537 232.398L189.834 242.98L189.162 244.408L188.406 245.794C186.727 248.257 185.061 249.489 183.409 249.489C181.785 249.489 180.176 248.313 178.58 245.962L173.415 238.025L168.418 229.963L167.116 227.989C166.556 227.233 165.912 226.59 165.185 226.058L165.143 253.646C165.115 255.998 164.779 258.42 164.135 260.911C163.575 263.263 162.203 264.438 160.02 264.438C159.852 264.438 159.684 264.424 159.516 264.396C157.304 264.229 156.002 262.815 155.61 260.155L155.484 257.006L155.19 203.844C155.19 202.248 155.302 200.68 155.526 199.141C155.89 196.817 157.276 195.431 159.684 194.983C160.02 194.927 160.355 194.899 160.691 194.899C162.455 194.899 163.883 195.823 164.975 197.671L165.856 199.561L166.528 201.576C170.756 213.362 175.389 222.978 180.428 230.425L181.52 231.895L182.863 233.616ZM230.39 194.899C230.586 194.871 230.796 194.857 231.02 194.857C232.112 194.857 233.022 195.193 233.749 195.865C234.897 196.957 235.471 198.721 235.471 201.156V201.828L234.925 213.922L234.631 226.016V226.268C234.631 232.874 235.695 239.607 237.823 246.466C238.271 247.894 238.928 249.447 239.796 251.127C241.252 253.982 243.282 255.522 245.885 255.746C246.053 255.774 246.221 255.788 246.389 255.788C248.097 255.788 249.357 254.99 250.168 253.395L251.302 251.211L252.268 248.901C254.592 242.715 255.753 236.752 255.753 231.013C255.753 230.565 255.739 230.117 255.711 229.669L255.291 220.431L254.829 211.15L254.746 205.439L254.788 199.812C254.816 198.497 255.347 197.433 256.383 196.621L256.467 196.537C257.195 195.977 257.979 195.697 258.819 195.697C259.239 195.697 259.673 195.767 260.121 195.907C261.436 196.327 262.346 197.195 262.85 198.511C263.914 201.338 264.726 204.558 265.286 208.169C266.265 214.664 266.755 220.795 266.755 226.562C266.755 235.156 265.663 242.924 263.48 249.867C262.444 253.199 260.624 257.076 258.021 261.499C255.837 265.166 252.534 267 248.111 267C247.579 267 247.019 266.972 246.431 266.916C237.669 266.076 231.846 261.737 228.962 253.898C225.715 244.996 224.091 237.088 224.091 230.173C224.091 229.669 224.105 229.165 224.133 228.661L225.351 202.836C225.407 201.772 225.729 200.246 226.317 198.259C226.877 196.243 228.206 195.123 230.306 194.899H230.39ZM311.427 256.082C312.658 255.69 313.274 254.878 313.274 253.646C313.274 253.423 313.26 253.199 313.232 252.975C312.616 249.139 310.559 245.57 307.059 242.267C305.604 240.895 303.7 239.299 301.348 237.479L295.512 232.944L285.265 224.588C284.034 223.496 282.956 222.264 282.032 220.893C280.212 218.177 279.303 215.616 279.303 213.208C279.303 210.157 280.786 207.371 283.754 204.852C289.241 200.148 295.484 197.293 302.482 196.285L303.952 196.075L305.758 195.823L310.083 195.235C311.986 195.039 313.596 194.941 314.912 194.941C316.144 194.941 317.11 195.025 317.809 195.193C320.245 195.809 322.149 196.803 323.52 198.175C324.304 198.959 324.696 199.896 324.696 200.988C324.696 201.24 324.682 201.506 324.654 201.786C324.262 204.194 322.862 205.411 320.455 205.439L316.55 205.397C315.85 205.341 315.15 205.313 314.45 205.313C311.091 205.313 307.479 205.803 303.616 206.783C298.577 208.071 294.56 209.835 291.564 212.074C290.948 212.55 290.64 213.124 290.64 213.796C290.64 214.132 290.71 214.482 290.85 214.846C291.522 216.385 292.838 217.883 294.798 219.339L301.055 223.832L307.227 228.451C314.394 234.078 319.153 239.551 321.505 244.87C323.044 248.341 323.814 251.463 323.814 254.234V254.528C323.646 261.779 319.895 265.838 312.56 266.706C310.825 266.902 309.145 267 307.521 267C298.003 267 289.941 263.613 283.334 256.838L281.864 254.906L280.646 252.723C279.974 251.463 279.638 250.273 279.638 249.153C279.638 248.649 279.708 248.146 279.848 247.642C280.436 245.626 281.444 244.618 282.872 244.618C283.6 244.618 284.44 244.87 285.391 245.374L286.945 246.298C288.457 247.278 289.675 248.257 290.598 249.237C294.266 253.101 299.361 255.508 305.884 256.46C306.611 256.544 307.297 256.586 307.941 256.586C309.201 256.586 310.363 256.418 311.427 256.082Z" fill="#00A3E0"/>
<path d="M36.3828 312C35.6895 312 35.2354 311.575 35.0205 310.726C34.9326 310.384 34.8887 310.032 34.8887 309.671C34.8887 309.251 34.9473 308.821 35.0645 308.382C35.8652 305.413 37.3447 302.713 39.5029 300.281L40.2207 299.651L40.9971 299.065C40.6553 298.206 40.1914 297.347 39.6055 296.487L38.7998 295.359L37.9795 294.305L36.3975 292.444L34.7861 290.643L34.2734 290.057L33.8193 289.427C33.6338 289.114 33.541 288.816 33.541 288.533C33.541 288.152 33.6973 287.796 34.0098 287.464C34.3613 287.083 34.7471 286.893 35.167 286.893C35.4209 286.893 35.6846 286.961 35.958 287.098C36.6221 287.439 37.1836 287.874 37.6426 288.401L40.0742 291.287L42.4912 294.188C42.5107 294.207 42.7891 294.563 43.3262 295.257L43.3408 289.485L43.4287 288.519C43.624 287.474 44.1855 286.946 45.1133 286.937H45.1572C46.124 286.937 46.6904 287.513 46.8564 288.665L46.959 289.822L46.9736 290.979L46.9883 295.008C47.9648 294.217 49.0488 293.133 50.2402 291.756L51.6172 290.115L53.0088 288.504C53.4287 288.035 53.9219 287.62 54.4883 287.259C54.8008 287.063 55.0986 286.966 55.3818 286.966C55.7529 286.966 56.1094 287.127 56.4512 287.449C56.8027 287.781 56.9785 288.147 56.9785 288.548C56.9785 288.821 56.8955 289.104 56.7295 289.397C56.4951 289.827 56.1973 290.252 55.8359 290.672L49.2734 298.069L49.0977 298.304L48.8926 298.626L50.7529 299.681C53.9756 301.38 56.6855 304.178 58.8828 308.074C59.1367 308.523 59.3027 309.139 59.3809 309.92C59.3906 309.998 59.3955 310.071 59.3955 310.14C59.3955 310.774 59.0732 311.209 58.4287 311.443C58.1748 311.541 57.9355 311.59 57.7109 311.59C57.3008 311.59 56.9443 311.424 56.6416 311.092L56.1143 310.403L55.6162 309.686L53.7852 307.298C53.0625 306.37 52.4229 305.604 51.8662 304.998C50.792 303.836 49.2197 302.864 47.1494 302.083C47.0225 302.972 46.959 303.978 46.959 305.101L47.0322 307.986L47.0469 308.865L46.959 309.715C46.7734 310.506 46.2656 310.94 45.4355 311.019C45.3477 311.028 45.2646 311.033 45.1865 311.033C44.4736 311.033 43.9854 310.687 43.7217 309.993C43.4971 309.378 43.375 308.689 43.3555 307.928L43.3262 304.954V303.357L43.3408 301.644L42.7402 302.259L42.2129 302.771C41.8516 303.152 41.5928 303.475 41.4365 303.738C40.5479 305.291 39.5273 307.239 38.375 309.583L38.0234 310.271L37.6279 310.931C37.2959 311.409 36.8809 311.766 36.3828 312ZM81.0078 297.85L80.0557 299.49L78.1367 303.094L76.2178 306.683C75.749 307.532 75.0996 308.553 74.2695 309.744C73.7812 310.438 73.2148 310.784 72.5703 310.784C72.4238 310.784 72.2676 310.765 72.1016 310.726C71.2031 310.511 70.7246 309.822 70.666 308.66L70.0068 294.158C69.9775 293.367 69.9629 292.532 69.9629 291.653C69.9629 290.94 69.9727 290.198 69.9922 289.427C70.0117 288.655 70.1338 288.079 70.3584 287.698C70.4756 287.493 70.6611 287.308 70.915 287.142C71.1689 286.976 71.4033 286.893 71.6182 286.893C71.833 286.893 72.0723 286.98 72.3359 287.156C72.5898 287.322 72.7656 287.508 72.8633 287.713C73.0977 288.211 73.2344 288.914 73.2734 289.822L73.6836 301.614L73.7129 302.347L73.7715 303.182C74.0938 303.035 74.3525 302.796 74.5479 302.464L74.7676 302.039L74.9873 301.614L82.3848 289.134C82.7559 288.509 83.1318 288.045 83.5127 287.742C83.8838 287.459 84.2598 287.317 84.6406 287.317C84.8652 287.317 85.0898 287.366 85.3145 287.464C85.9395 287.728 86.291 288.221 86.3691 288.943L86.3545 290.203L86.2227 291.463L85.6221 297.791C85.5439 298.709 85.5049 299.671 85.5049 300.677C85.5049 303.04 85.7295 305.633 86.1787 308.455C86.2959 309.207 86.3545 309.866 86.3545 310.433C86.3447 311.185 85.9639 311.673 85.2119 311.897C85.0068 311.966 84.8164 312 84.6406 312C84.084 312 83.6689 311.688 83.3955 311.062C83.083 310.34 82.8584 309.529 82.7217 308.631C82.165 305.057 81.8867 301.829 81.8867 298.948C81.8867 298.001 81.916 297.093 81.9746 296.224L81.0078 297.85ZM102.298 290.921L100.174 291.082C100.027 291.092 99.8809 291.097 99.7344 291.097C99.1094 291.097 98.5137 291.028 97.9473 290.892C97.1758 290.706 96.7852 290.198 96.7754 289.368C96.7754 288.704 97.1123 288.221 97.7861 287.918C98.1572 287.742 98.5771 287.635 99.0459 287.596L104.026 287.186L108.992 286.834L111.336 286.878L113.68 287.068C114.08 287.098 114.446 287.181 114.778 287.317C115.638 287.708 116.067 288.26 116.067 288.973C116.067 289.061 116.062 289.148 116.053 289.236C115.936 290.027 115.325 290.467 114.222 290.555H113.387L112.537 290.525L110.34 290.511L108.143 290.496V290.833L108.187 291.097L108.392 302.376L108.553 309.905L108.538 310.096C108.431 311.326 107.874 311.961 106.868 312H106.766C105.75 312 105.179 311.414 105.052 310.242L104.876 307.049L104.583 291.434V291.126L104.524 290.687L102.298 290.921ZM130.663 303.987L130.81 307.942C131.581 308.235 132.431 308.382 133.358 308.382C133.817 308.382 134.296 308.348 134.794 308.279C136.288 308.074 137.455 307.63 138.295 306.946C138.881 306.478 139.174 305.862 139.174 305.101C139.174 305.022 139.169 304.939 139.159 304.852C138.925 301.883 137.396 300.218 134.574 299.856C134.145 299.808 133.612 299.783 132.978 299.783H132.655L131.615 299.812L130.502 299.827L130.663 303.987ZM132.479 296.194L134.604 296.326C137.221 296.541 139.267 297.61 140.741 299.534C141.952 301.116 142.621 302.991 142.748 305.159C142.758 305.286 142.763 305.408 142.763 305.525C142.763 307.137 142.099 308.46 140.771 309.495C138.622 311.165 136.215 312 133.549 312C132.152 312 130.683 311.771 129.14 311.312C127.978 310.97 127.362 310.047 127.294 308.543L127.016 303.152L126.723 297.747C126.625 295.521 126.518 292.605 126.4 289.002L126.474 288.46C126.669 287.435 127.167 286.902 127.968 286.863H128.07C128.783 286.863 129.276 287.288 129.55 288.138C129.755 288.792 129.877 289.446 129.916 290.101C129.945 290.647 129.97 291.219 129.989 291.814L130.004 292.605L130.033 293.543L130.106 294.744L130.194 296.062L132.479 296.194ZM173.551 298.377L174.269 298.084L174.898 297.82C175.357 297.625 175.738 297.498 176.041 297.439C177.77 297.088 178.878 295.779 179.366 293.514C179.435 293.211 179.469 292.933 179.469 292.679C179.469 291.468 178.717 290.789 177.213 290.643C176.715 290.594 176.236 290.569 175.777 290.569C174.986 290.569 174.244 290.638 173.551 290.774V298.377ZM173.639 307.166C174.82 307.85 175.987 308.191 177.14 308.191C177.784 308.191 178.429 308.084 179.073 307.869C180.87 307.273 182.105 306.023 182.779 304.119C181.842 302.742 180.533 301.678 178.854 300.926C178.062 301.229 177.174 301.561 176.188 301.922L173.639 302.889V307.166ZM182.53 298.685L183.424 299.417L184.435 300.354L185.372 301.351C186.212 302.386 186.632 303.416 186.632 304.441C186.632 305.447 186.222 306.448 185.401 307.444C182.901 310.481 180.133 312 177.096 312C176.1 312 175.069 311.834 174.005 311.502L173.609 311.443H173.419L173.229 311.473C172.711 311.658 172.252 311.751 171.852 311.751C170.719 311.751 170.104 311.004 170.006 309.51C169.859 307.576 169.781 305.481 169.771 303.226L169.801 290.452C169.811 289.642 169.864 288.992 169.962 288.504C170.177 287.449 170.841 286.922 171.954 286.922H172.042L177.096 286.937L178.209 287.024C179.029 287.142 179.737 287.386 180.333 287.757C182.237 288.929 183.189 290.53 183.189 292.562C183.189 293.147 183.111 293.768 182.955 294.422C182.828 294.9 182.633 295.491 182.369 296.194L181.651 298.011L182.53 298.685ZM206.589 300.354C208.659 295.774 210.046 292.264 210.749 289.822L210.881 289.28L211.042 288.768C211.413 287.879 211.965 287.435 212.697 287.435C212.795 287.435 212.897 287.444 213.005 287.464C213.864 287.601 214.362 288.147 214.499 289.104C214.675 290.384 214.763 291.38 214.763 292.093V292.21C214.753 292.503 214.748 292.801 214.748 293.104C214.748 297.4 215.339 302.508 216.521 308.426C216.628 308.973 216.682 309.515 216.682 310.052C216.682 310.179 216.677 310.306 216.667 310.433C216.638 311.292 216.198 311.8 215.349 311.956C215.222 311.985 215.095 312 214.968 312C214.401 312 213.967 311.707 213.664 311.121C213.41 310.633 213.215 309.993 213.078 309.202L212.199 304.031L211.32 298.729L210.969 299.344L210.661 299.93L209.021 303.621L208.786 304.119L208.522 304.603C207.937 305.462 207.355 305.892 206.779 305.892C206.213 305.892 205.651 305.481 205.095 304.661L203.293 301.893L201.55 299.08L201.096 298.392C200.9 298.128 200.676 297.903 200.422 297.718L200.407 307.342C200.397 308.162 200.28 309.007 200.056 309.876C199.86 310.696 199.382 311.106 198.62 311.106C198.562 311.106 198.503 311.102 198.444 311.092C197.673 311.033 197.219 310.54 197.082 309.612L197.038 308.514L196.936 289.969C196.936 289.412 196.975 288.865 197.053 288.328C197.18 287.518 197.663 287.034 198.503 286.878C198.62 286.858 198.737 286.849 198.854 286.849C199.47 286.849 199.968 287.171 200.349 287.815L200.656 288.475L200.891 289.178C202.365 293.289 203.981 296.644 205.739 299.241L206.12 299.754L206.589 300.354ZM230.97 299.227L232.83 299.212L234.544 299.241C235.687 299.329 236.414 299.769 236.727 300.56C236.824 300.804 236.873 301.028 236.873 301.233C236.873 301.702 236.614 302.068 236.097 302.332C235.677 302.557 235.066 302.703 234.266 302.771L232.728 302.933L231.028 303.123C231.126 304.744 231.209 306.248 231.277 307.635H233.284L235.496 307.591L237.708 307.62C238.782 307.688 239.583 308.05 240.11 308.704C240.306 308.938 240.403 309.197 240.403 309.48C240.403 309.607 240.379 309.744 240.33 309.891C240.193 310.33 239.905 310.613 239.466 310.74C238.626 310.994 237.742 311.136 236.814 311.165L234.983 311.209L233.167 311.341C232.659 311.409 231.644 311.604 230.12 311.927C229.896 311.976 229.686 312 229.49 312C228.592 312 228.055 311.473 227.879 310.418L227.776 309.51C227.61 307.596 227.474 305.359 227.366 302.801L227.308 300.018L227.278 297.22L227 288.577V288.431C227 287.112 227.625 286.331 228.875 286.087C229.549 286.478 230.413 286.702 231.468 286.761L232.874 286.775L234.31 286.746H236.038L237.767 286.863C239.036 287.039 239.676 287.649 239.686 288.694C239.686 289.495 239.3 289.988 238.528 290.174C237.894 290.32 237.005 290.394 235.862 290.394C235.521 290.394 235.154 290.389 234.764 290.379L232.845 290.35C232.142 290.369 231.517 290.442 230.97 290.569V299.227ZM268.285 305.159C268.451 305.052 268.607 304.998 268.754 304.998C269.047 304.998 269.267 305.257 269.413 305.774C269.491 306.028 269.53 306.277 269.53 306.521C269.53 307.254 269.213 307.991 268.578 308.733C266.713 310.911 264.54 312 262.06 312C261.073 312 260.038 311.829 258.954 311.487C256.532 310.726 254.535 309.192 252.963 306.888C251.518 304.769 250.795 302.547 250.795 300.223C250.795 300.027 250.8 299.827 250.81 299.622C251.015 295.892 252.294 292.718 254.647 290.101C255.624 289.017 256.732 288.177 257.973 287.581C258.959 287.112 259.916 286.878 260.844 286.878C262.299 286.878 263.666 287.469 264.945 288.65C265.727 289.363 266.361 290.022 266.85 290.628C267.338 291.243 267.582 291.795 267.582 292.283C267.582 292.703 267.396 293.074 267.025 293.396C266.752 293.631 266.449 293.748 266.117 293.748C265.619 293.748 265.058 293.47 264.433 292.913L263.495 292.034L262.558 291.155C262.001 290.667 261.41 290.423 260.785 290.423C260.316 290.423 259.828 290.564 259.32 290.848C258.5 291.316 257.914 291.746 257.562 292.137C255.424 294.5 254.354 297.098 254.354 299.93C254.354 300.35 254.379 300.779 254.428 301.219C254.672 303.455 255.775 305.364 257.738 306.946C259.076 308.03 260.399 308.572 261.708 308.572C262.831 308.572 263.944 308.172 265.048 307.371C266.2 306.531 267.001 305.96 267.45 305.657L267.875 305.408C268.148 305.252 268.285 305.169 268.285 305.159ZM285.562 290.921L283.438 291.082C283.291 291.092 283.145 291.097 282.998 291.097C282.373 291.097 281.777 291.028 281.211 290.892C280.439 290.706 280.049 290.198 280.039 289.368C280.039 288.704 280.376 288.221 281.05 287.918C281.421 287.742 281.841 287.635 282.31 287.596L287.29 287.186L292.256 286.834L294.6 286.878L296.943 287.068C297.344 287.098 297.71 287.181 298.042 287.317C298.901 287.708 299.331 288.26 299.331 288.973C299.331 289.061 299.326 289.148 299.316 289.236C299.199 290.027 298.589 290.467 297.485 290.555H296.65L295.801 290.525L293.604 290.511L291.406 290.496V290.833L291.45 291.097L291.655 302.376L291.816 309.905L291.802 310.096C291.694 311.326 291.138 311.961 290.132 312H290.029C289.014 312 288.442 311.414 288.315 310.242L288.14 307.049L287.847 291.434V291.126L287.788 290.687L285.562 290.921ZM313.634 299.227L315.494 299.212L317.208 299.241C318.351 299.329 319.078 299.769 319.391 300.56C319.488 300.804 319.537 301.028 319.537 301.233C319.537 301.702 319.278 302.068 318.761 302.332C318.341 302.557 317.73 302.703 316.93 302.771L315.392 302.933L313.692 303.123C313.79 304.744 313.873 306.248 313.941 307.635H315.948L318.16 307.591L320.372 307.62C321.446 307.688 322.247 308.05 322.774 308.704C322.97 308.938 323.067 309.197 323.067 309.48C323.067 309.607 323.043 309.744 322.994 309.891C322.857 310.33 322.569 310.613 322.13 310.74C321.29 310.994 320.406 311.136 319.479 311.165L317.647 311.209L315.831 311.341C315.323 311.409 314.308 311.604 312.784 311.927C312.56 311.976 312.35 312 312.154 312C311.256 312 310.719 311.473 310.543 310.418L310.44 309.51C310.274 307.596 310.138 305.359 310.03 302.801L309.972 300.018L309.942 297.22L309.664 288.577V288.431C309.664 287.112 310.289 286.331 311.539 286.087C312.213 286.478 313.077 286.702 314.132 286.761L315.538 286.775L316.974 286.746H318.702L320.431 286.863C321.7 287.039 322.34 287.649 322.35 288.694C322.35 289.495 321.964 289.988 321.192 290.174C320.558 290.32 319.669 290.394 318.526 290.394C318.185 290.394 317.818 290.389 317.428 290.379L315.509 290.35C314.806 290.369 314.181 290.442 313.634 290.569V299.227Z" fill="#440099"/>
<path d="M177.637 28.6991C179.462 28.6605 181.316 29.159 182.932 30.2446L247.733 73.7917C251.803 76.527 252.816 81.9444 249.996 85.8917C247.175 89.839 241.589 90.822 237.519 88.0868L177.677 47.872L118.041 88.3688C113.985 91.1234 108.393 90.167 105.553 86.2331C102.713 82.2992 103.699 76.8774 107.755 74.1228L172.337 30.2692C173.95 29.1734 175.807 28.6664 177.637 28.6991Z" fill="#00A3E0"/>
<path d="M148.765 140.87H176.561C205.211 140.87 229.376 122.254 236.9 96.8156C243.917 98.5448 251.614 96.0248 256.012 89.9329C257.584 87.7567 258.568 85.3523 259 82.8966C257.428 125.738 221.121 160 176.561 160H99V89.5805C99.2814 90.0619 99.5881 90.5353 99.9221 90.9978C104.257 97.0009 111.794 99.5361 118.727 97.9535V140.87H129.038V92.4567L148.765 79.0608V140.87Z" fill="#00A3E0"/>
<path d="M176.561 0C221.095 0 257.386 34.2226 258.997 77.0287C258.219 72.6113 255.692 68.4852 251.608 65.7116L232.799 52.939C222.527 32.9008 201.202 19.1304 176.561 19.1304H118.727V56.9973L104.326 66.7765C102.061 68.3144 100.275 70.2682 99 72.4567V0H176.561Z" fill="#00A3E0"/>
<path d="M224.981 90.0925V109.5C219.811 116.707 213.078 122.779 205.254 127.253V76.6975L224.981 90.0925Z" fill="#440099"/>
<rect x="159.525" y="89.5649" width="16.1399" height="15.6522" rx="3" fill="#440099"/>
<rect x="159.525" y="108.696" width="16.1399" height="15.6522" rx="3" fill="#440099"/>
<rect x="178.355" y="89.5649" width="16.1399" height="15.6522" rx="3" fill="#FFC107"/>
<rect x="178.355" y="108.696" width="16.1399" height="15.6522" rx="3" fill="#440099"/>
</svg>
